PathFileType	4	(X/Y/Z)	/Users/itak/Documents/Research/Walk-IL/dataset/trc/00286_00010.trc
DataRate	CameraRate	NumFrames	NumMarkers	Units	OrigDataRate	OrigDataStartFrame	OrigNumFrames
100.000000	100.000000	4	54	mm	100.000000	162	648
Frame#	Time	RPSI			LPSI			L3			STRN			T10			C7			CLAV			RBAK			LBAK			LSHO			LUPA			LAEL			LAOL			LWTS			LWPS			LFRA			LIFD			LHPS			LHTS			RSHO			RUPA			RAEL			RAOL			RWTS			RWPS			RFRA			RIFD			RHTS			RHPS			RBHD			LFHD			RFHD			LBHD			LHIP			RASI			LASI			LKNE			LTHI			LANK			LTIP			LTOE			LMT1			LMT5			LHEE			RKNE			RANK			RTIP			RTOE			RMT1			RMT5			RHEE			RHIP			RTHI			*53			
		X1	Y1	Z1	X2	Y2	Z2	X3	Y3	Z3	X4	Y4	Z4	X5	Y5	Z5	X6	Y6	Z6	X7	Y7	Z7	X8	Y8	Z8	X9	Y9	Z9	X10	Y10	Z10	X11	Y11	Z11	X12	Y12	Z12	X13	Y13	Z13	X14	Y14	Z14	X15	Y15	Z15	X16	Y16	Z16	X17	Y17	Z17	X18	Y18	Z18	X19	Y19	Z19	X20	Y20	Z20	X21	Y21	Z21	X22	Y22	Z22	X23	Y23	Z23	X24	Y24	Z24	X25	Y25	Z25	X26	Y26	Z26	X27	Y27	Z27	X28	Y28	Z28	X29	Y29	Z29	X30	Y30	Z30	X31	Y31	Z31	X32	Y32	Z32	X33	Y33	Z33	X34	Y34	Z34	X35	Y35	Z35	X36	Y36	Z36	X37	Y37	Z37	X38	Y38	Z38	X39	Y39	Z39	X40	Y40	Z40	X41	Y41	Z41	X42	Y42	Z42	X43	Y43	Z43	X44	Y44	Z44	X45	Y45	Z45	X46	Y46	Z46	X47	Y47	Z47	X48	Y48	Z48	X49	Y49	Z49	X50	Y50	Z50	X51	Y51	Z51	X52	Y52	Z52	X53	Y53	Z53	X54	Y54	Z54	

163	1.62	831.6875610351562	964.1136474609375	1154.153076171875	728.3619384765625	956.9944458007812	1014.072448730469	774.96875	1031.521728515625	1062.230224609375	973.6016235351562	1210.72021484375	908.9785766601562	753.5841064453125	1147.001098632812	1055.220947265625	772.867431640625	1390.397094726562	1000.649475097656	913.6726684570312	1309.401000976562	934.5397338867188	772.962890625	1259.160522460938	1102.177978515625	705.857177734375	1346.24853515625	921.3479614257812	760.127685546875	1349.289672851562	833.6099853515625	721.4033813476562	1226.20751953125	777.6591796875	778.1815795898438	1040.196411132812	749.6184692382812	741.0096435546875	997.75927734375	819.5980834960938	985.3477783203125	951.105224609375	737.8727416992188	957.5790405273438	912.8491821289062	682.8201904296875	844.0075073242188	975.4068603515625	722.4115600585938	1134.408325195312	842.4295043945312	707.7598876953125	1030.150146484375	860.5509033203125	671.6626586914062	1068.522705078125	908.6273803710938	696.0371704101562	912.9229736328125	1380.56591796875	1105.323120117188	939.4890747070312	1334.398803710938	1172.772338867188	925.8304443359375	1089.763793945312	1277.4140625	868.072265625	1065.964599609375	1203.300903320312	983.3052368164062	846.071533203125	1273.33251953125	960.68603515625	869.6347045898438	1350.525512695312	945.462890625	1026.10888671875	1302.218872070312	954.4046020507812	668.2777709960938	1324.233032226562	996.8067626953125	733.5853271484375	1316.340942382812	965.3329467773438	757.0455322265625	1375.044555664062	849.0354614257812	1558.449951171875	1033.841186523438	885.0003051757812	1569.698974609375	826.2824096679688	950.12158203125	1578.5185546875	891.6808471679688	747.4654541015625	1534.108764648438	931.2171630859375	723.6306762695312	904.5142822265625	898.09033203125	1022.966064453125	930.6885986328125	1044.19287109375	863.49072265625	913.4034423828125	851.0355224609375	769.9935913085938	450.5490112304688	979.8360595703125	762.3361206054688	586.2747192382812	930.1944580078125	654.1356811523438	47.9283561706543	1135.3681640625	711.0697021484375	236.5657806396484	1054.326171875	870.763427734375	31.41233062744141	1142.2255859375	809.014892578125	25.80701637268066	1197.129638671875	770.3218383789062	39.62373733520508	1094.152709960938	624.5037231445312	45.08808517456055	1203.793701171875	1120.305053710938	488.2373352050781	1041.250122070312	1237.125	50.56512451171875	964.5004272460938	1163.207641601562	381.511474609375	999.0325927734375	1265.546020507812	122.2919464111328	778.0377807617188	1209.306640625	92.30315399169922	806.9989624023438	1298.300537109375	78.85755920410156	881.8803100585938	1172.160766601562	26.7316837310791	985.8991088867188	978.5670776367188	924.2589111328125	1174.437622070312	1069.9638671875	734.0159301757812	1116.296630859375	nan	nan	nan	
164	1.63	841.3359985351562	961.0932006835938	1149.27734375	736.9573364257812	954.5510864257812	1009.914916992188	783.300537109375	1028.5322265625	1057.609985351562	981.0192260742188	1207.985595703125	903.2122802734375	761.7027587890625	1144.456420898438	1050.482055664062	780.9256591796875	1387.884643554688	995.763427734375	921.4288330078125	1306.7138671875	929.0210571289062	781.435791015625	1256.541381835938	1097.173095703125	713.5714111328125	1343.741088867188	916.7621459960938	767.4888916015625	1346.640380859375	828.6597290039062	727.8756103515625	1223.468139648438	773.1328735351562	782.75341796875	1037.2763671875	745.286376953125	745.8997192382812	994.8621826171875	815.4910278320312	990.346923828125	949.884033203125	732.9563598632812	962.9227905273438	911.5064086914062	677.7747802734375	848.8783569335938	973.2472534179688	717.7217407226562	1140.6826171875	843.1509399414062	702.5618896484375	1036.092163085938	859.896240234375	666.6130981445312	1073.84228515625	908.4761962890625	690.85693359375	921.4414672851562	1377.891723632812	1099.8740234375	948.0870971679688	1331.942016601562	1167.30224609375	933.327392578125	1088.033569335938	1273.172973632812	875.6861572265625	1063.902465820312	1198.88720703125	989.780517578125	844.0263061523438	1270.655029296875	966.8563842773438	868.1019897460938	1347.623657226562	952.6499633789062	1024.413208007812	1298.427368164062	960.1610717773438	666.6766967773438	1322.4521484375	1002.784851074219	731.7940063476562	1314.427124023438	970.9717407226562	755.6405639648438	1372.7998046875	857.50390625	1555.975708007812	1028.546264648438	891.734130859375	1566.962036132812	820.7306518554688	957.477783203125	1575.835815429688	885.5992431640625	755.190185546875	1531.5908203125	926.8392333984375	730.9288940429688	902.2776489257812	893.8250732421875	1031.657348632812	928.1593017578125	1037.324829101562	870.2552490234375	910.8006591796875	845.3949584960938	773.2673950195312	449.2770385742188	977.3853149414062	766.7297973632812	584.7191162109375	926.8675537109375	654.41162109375	48.44154357910156	1135.958374023438	712.564208984375	236.3633880615234	1053.37890625	870.890869140625	31.29415321350098	1142.110595703125	809.338623046875	25.96721076965332	1197.128540039062	770.3544921875	39.7643928527832	1094.2431640625	624.8867797851562	46.34096527099609	1204.370727539062	1129.01171875	486.081298828125	1031.740478515625	1245.677612304688	49.27687835693359	950.4600219726562	1171.680419921875	379.7377624511719	988.1401977539062	1272.85498046875	122.2762069702148	764.3193969726562	1216.882446289062	91.92351531982422	793.4136352539062	1306.294799804688	78.35834503173828	867.691162109375	1180.894287109375	25.22089385986328	972.1736450195312	988.5711059570312	921.2991333007812	1168.054809570312	1079.961181640625	731.1541748046875	1108.743041992188	nan	nan	nan	
165	1.64	851.0914306640625	958.232666015625	1144.199096679688	745.643798828125	952.1373291015625	1005.618041992188	791.7920532226562	1025.548706054688	1052.806518554688	988.5040283203125	1205.209594726562	897.37109375	769.9791259765625	1141.808959960938	1045.610473632812	788.9907836914062	1385.3076171875	990.8737182617188	929.2530517578125	1303.986328125	923.426513671875	789.9996948242188	1253.794555664062	1092.089721679688	721.33447265625	1341.1611328125	912.14990234375	774.8938598632812	1343.971923828125	823.6640014648438	734.398193359375	1220.701416015625	768.5888671875	787.3505249023438	1034.233276367188	740.9741821289062	750.8020629882812	991.9844970703125	811.3862915039062	995.1294555664062	947.928955078125	727.8911743164062	967.8170166015625	909.40380859375	672.7069702148438	853.6050415039062	970.7154541015625	713.0070190429688	1146.276245117188	842.5536499023438	697.0963134765625	1041.362670898438	858.2520141601562	661.4541625976562	1078.730590820312	907.2403564453125	685.453857421875	930.022216796875	1375.1474609375	1094.375732421875	956.7933959960938	1329.35888671875	1161.754272460938	941.1654052734375	1086.05615234375	1268.676025390625	883.5523681640625	1061.679565429688	1194.369873046875	996.5004272460938	841.7784423828125	1267.536010742188	973.5303344726562	866.3660888671875	1344.3349609375	960.2762451171875	1022.4970703125	1294.32080078125	966.1812133789062	664.919921875	1320.309448242188	1009.061157226562	729.7901000976562	1312.035522460938	977.1156616210938	754.044189453125	1370.151611328125	865.9449462890625	1553.556884765625	1023.108093261719	898.485107421875	1564.097778320312	815.0587768554688	964.817626953125	1573.0693359375	879.395751953125	762.8876953125	1529.095092773438	922.334716796875	738.2735595703125	900.02734375	889.4531860351562	1040.38623046875	925.5357666015625	1030.2822265625	877.0150756835938	908.0939331054688	839.5787353515625	776.984130859375	447.9353637695312	974.7821655273438	771.530029296875	583.084228515625	923.3826904296875	654.73828125	49.07373046875	1136.564453125	714.3492431640625	236.1741943359375	1052.3623046875	871.0338745117188	31.1724739074707	1141.989868164062	809.7105102539062	26.13509941101074	1197.130493164062	770.4141845703125	39.93657684326172	1094.338134765625	625.3209838867188	47.80329132080078	1204.976806640625	1137.715576171875	484.1049194335938	1021.838684082031	1252.792602539062	47.50897598266602	938.1161499023438	1179.85400390625	377.7301330566406	977.1635131835938	1278.591674804688	120.5038146972656	751.8936157226562	1222.849243164062	90.13719177246094	781.349853515625	1312.7548828125	76.66365051269531	854.9425659179688	1188.1494140625	23.64022636413574	960.3694458007812	998.6530151367188	918.4189453125	1161.488403320312	1089.910766601562	728.4308471679688	1100.776977539062	nan	nan	nan	
166	1.65	860.9518432617188	955.6082153320312	1138.873779296875	754.4210205078125	949.7857055664062	1001.146728515625	800.4558715820312	1022.633056640625	1047.79296875	996.0631103515625	1202.449096679688	891.42431640625	778.4216918945312	1139.086547851562	1040.586303710938	797.0668334960938	1382.704467773438	985.9844970703125	937.1447143554688	1301.271728515625	917.7393188476562	798.6732788085938	1250.953491210938	1086.932861328125	729.1383056640625	1338.554077148438	907.519287109375	782.3174438476562	1341.33642578125	818.6325073242188	740.921630859375	1217.94921875	764.0518798828125	791.978515625	1031.094482421875	736.6919555664062	755.7394409179688	989.1826171875	807.3024291992188	999.6932373046875	945.2312622070312	722.6953125	972.2515869140625	906.5143432617188	667.644775390625	858.1887817382812	967.8226928710938	708.2793579101562	1151.186889648438	840.6087036132812	691.3600463867188	1045.954956054688	855.5891723632812	656.2056884765625	1083.188598632812	904.90087890625	679.838134765625	938.6782836914062	1372.370971679688	1088.818481445312	965.6243286132812	1326.684448242188	1156.11376953125	949.383056640625	1083.867065429688	1263.91064453125	891.6788940429688	1059.3291015625	1189.721923828125	1003.46337890625	839.346435546875	1263.950439453125	980.7303466796875	864.4566650390625	1340.634521484375	968.3612060546875	1020.387023925781	1289.872314453125	972.4354248046875	663.0289916992188	1317.788696289062	1015.618041992188	727.59423828125	1309.150390625	983.7734375	752.2897338867188	1367.085205078125	874.3768310546875	1551.234375	1017.536987304688	905.2415771484375	1561.16064453125	809.271728515625	972.1329956054688	1570.2734375	873.0692749023438	770.5597534179688	1526.652465820312	917.7238159179688	745.7227783203125	897.7581176757812	884.9633178710938	1049.171752929688	922.88330078125	1023.063415527344	883.82763671875	905.320068359375	833.5767211914062	781.1556396484375	446.5314331054688	971.9957885742188	776.7161254882812	581.39501953125	919.7352294921875	655.1212158203125	49.85734176635742	1137.140380859375	716.43701171875	236.0204010009766	1051.252563476562	871.1878051757812	31.05597114562988	1141.869506835938	810.1075439453125	26.29411125183105	1197.124633789062	770.517822265625	40.14044570922852	1094.416381835938	625.8019409179688	49.51935958862305	1205.57177734375	1146.381591796875	482.34326171875	1011.601379394531	1258.632934570312	45.34475326538086	927.43505859375	1187.7099609375	375.5504455566406	966.156494140625	1282.740844726562	116.9814987182617	740.6826171875	1227.23046875	86.98416137695312	770.7845458984375	1317.764038085938	73.80722045898438	843.54248046875	1194.089477539062	22.11455154418945	950.5059814453125	1008.799621582031	915.7094116210938	1154.72412109375	1099.756469726562	725.9136352539062	1092.4111328125	nan	nan	nan	
